PathFileType	4	(X/Y/Z)	s03c0201.trc
DataRate	CameraRate	NumFrames	NumMarkers	Units	OrigDataRate	OrigDataStartFrame	OrigNumFrames
200	200	4	52	mm	200	1750	2000
Frame#	Time	racr			lacr			c7			jug			rlel			rdr			llel			ldr			s2			lic			ric			lasi			rasi			rpsi			lpsi			rgt			lgt			rth1			rth2			rth3			rth4			rlfc			rmfc			rsh1			rsh2			rsh3			rsh4			rlmal			rmmal			rcal			rtoe			rmt5			rmt1			lth1			lth2			lth4			lth3			llfc			lmfc			lsh1			lsh2			lsh3			lsh4			llmal			lmmal			lcal			ltoe			lmt1			lmt5			SBIKE			LBIKE			RBIKE			
		X1	Y1	Z1	X2	Y2	Z2	X3	Y3	Z3	X4	Y4	Z4	X5	Y5	Z5	X6	Y6	Z6	X7	Y7	Z7	X8	Y8	Z8	X9	Y9	Z9	X10	Y10	Z10	X11	Y11	Z11	X12	Y12	Z12	X13	Y13	Z13	X14	Y14	Z14	X15	Y15	Z15	X16	Y16	Z16	X17	Y17	Z17	X18	Y18	Z18	X19	Y19	Z19	X20	Y20	Z20	X21	Y21	Z21	X22	Y22	Z22	X23	Y23	Z23	X24	Y24	Z24	X25	Y25	Z25	X26	Y26	Z26	X27	Y27	Z27	X28	Y28	Z28	X29	Y29	Z29	X30	Y30	Z30	X31	Y31	Z31	X32	Y32	Z32	X33	Y33	Z33	X34	Y34	Z34	X35	Y35	Z35	X36	Y36	Z36	X37	Y37	Z37	X38	Y38	Z38	X39	Y39	Z39	X40	Y40	Z40	X41	Y41	Z41	X42	Y42	Z42	X43	Y43	Z43	X44	Y44	Z44	X45	Y45	Z45	X46	Y46	Z46	X47	Y47	Z47	X48	Y48	Z48	X49	Y49	Z49	X50	Y50	Z50	X51	Y51	Z51	X52	Y52	Z52	
1750	8.7500	449.748737	1450.499569	-48.105498	446.193805	1465.963177	-377.339965	349.218869	1542.726611	-207.188360	420.759728	1388.044193	-209.703426	517.224876	1179.653169	42.976560	730.613974	989.605948	-36.602611	526.376896	1202.738290	-458.549717	732.483807	976.986888	-439.691268	-118.756758	1193.061632	-226.317394	60.105479	1237.120316	-410.411086	51.591455	1222.674569	-39.584773	76.078797	1157.211496	-371.268789	83.282164	1142.338888	-83.662237	-97.273961	1243.956161	-179.106422	-92.188573	1247.425209	-262.485538	-8.951056	1105.174403	-37.885215	6.081550	1145.186369	-429.710287	48.712749	956.087702	-21.458156	107.017705	888.884997	-20.844171	127.330770	806.214332	-34.899183	139.958401	905.762374	-26.649687	172.572490	689.878774	-70.006533	189.564146	677.032845	-181.677802	152.925929	522.634747	-39.481799	174.189625	436.040039	-49.302132	147.878203	351.439735	-51.617386	203.313834	437.102909	-74.731563	137.069275	217.450335	-72.583491	162.434463	233.453789	-154.993363	85.681694	161.106494	-109.467660	393.174565	199.087002	-112.610964	279.046600	162.921098	-40.553296	300.505635	187.064000	-154.505907	111.888049	1068.677575	-478.627648	195.458529	1057.495332	-499.469082	212.433057	1088.855442	-488.317792	264.231752	1001.736769	-515.148484	391.076340	941.413768	-522.503620	414.761418	935.775048	-392.429094	285.748369	806.034339	-510.004349	251.358726	736.433513	-472.615298	177.790250	687.929642	-452.276412	277.046806	724.448885	-445.854199	93.210885	603.198319	-407.278922	129.660126	621.270951	-320.752248	17.794226	577.412804	-351.047524	316.701250	499.542921	-362.388406	224.958353	514.859772	-314.453239	192.492214	502.674944	-427.764537	-215.047198	944.666547	-233.459478	-9.318215	80.653392	-433.466961	-9.284105	80.676663	-33.113125	
1751	8.7550	449.727453	1450.513954	-48.042474	446.219341	1466.015420	-377.307518	349.211246	1542.752681	-207.162773	420.778498	1388.084376	-209.684092	517.223710	1179.641330	43.009611	730.632970	989.600734	-36.573282	526.397975	1202.757718	-458.514414	732.497908	976.989788	-439.629640	-118.743685	1193.068932	-226.287788	60.108655	1237.139562	-410.416636	51.596217	1222.671090	-39.560215	76.093427	1157.192797	-371.238961	83.313893	1142.331143	-83.653277	-97.267684	1243.970345	-179.070384	-92.178925	1247.432881	-262.455150	-8.920523	1105.185465	-37.875053	6.062455	1145.210949	-429.704463	48.723997	956.100832	-21.448983	107.031191	888.887225	-20.831853	127.332284	806.223792	-34.882789	139.974014	905.760983	-26.648031	172.591912	689.886593	-70.013888	189.572168	677.035754	-181.664193	152.919821	522.651112	-39.480904	174.208699	436.028096	-49.303438	147.875126	351.447701	-51.629547	203.312654	437.096167	-74.755726	137.048462	217.483721	-72.575295	162.236409	233.592063	-154.970974	85.654479	161.131686	-109.465773	393.161515	199.069877	-112.601340	278.999444	162.942090	-40.553880	300.468960	187.068646	-154.496812	111.866230	1068.694796	-478.642921	195.435444	1057.519754	-499.484486	212.398424	1088.881866	-488.359423	264.191291	1001.767708	-515.198479	391.056114	941.435130	-522.528310	414.774410	935.806912	-392.477756	285.734476	806.052742	-510.033023	251.359778	736.424185	-472.613897	177.815751	687.931098	-452.277556	277.063180	724.457579	-445.875105	93.239583	603.202173	-407.269589	129.713998	621.263547	-320.771215	17.834301	577.417196	-351.056112	316.721542	499.540516	-362.399902	225.004414	514.881263	-314.444257	192.536019	502.641997	-427.693322	-215.042346	944.673028	-233.449736	-9.312002	80.645929	-433.468225	-9.284392	80.669604	-33.102097	
1752	8.7600	449.718864	1450.515618	-48.015715	446.238551	1466.062025	-377.261836	349.221155	1542.766068	-207.119031	420.825488	1388.135133	-209.654508	517.215057	1179.645532	43.016488	730.648696	989.583997	-36.575196	526.414862	1202.749985	-458.454599	732.523654	977.000242	-439.602775	-118.738966	1193.090990	-226.276375	60.130162	1237.139730	-410.410401	51.641681	1222.653983	-39.546180	76.117420	1157.180541	-371.311068	83.324324	1142.312213	-83.654456	-97.245153	1243.996868	-179.049524	-92.172033	1247.431951	-262.432526	-8.891358	1105.190477	-37.874140	6.051425	1145.226833	-429.686026	48.721417	956.102178	-21.440372	107.014334	888.896232	-20.818973	127.350582	806.225731	-34.884735	139.961121	905.767750	-26.632608	172.603833	689.900214	-70.020700	189.570217	677.063331	-181.665582	152.929807	522.662082	-39.474784	174.210196	436.035218	-49.301920	147.871552	351.468080	-51.651013	203.307845	437.115973	-74.743460	137.047997	217.478591	-72.594136	162.245328	233.602441	-154.987126	85.651890	161.149434	-109.461306	393.150103	199.047808	-112.581457	278.981951	162.964401	-40.534998	300.480901	187.049859	-154.493140	111.836012	1068.720397	-478.663871	195.398590	1057.540598	-499.521291	212.373384	1088.889148	-488.365064	264.152488	1001.794933	-515.230762	391.015346	941.468933	-522.595262	414.766674	935.822315	-392.523994	285.739378	806.055396	-510.045365	251.371616	736.431849	-472.633829	177.824998	687.930478	-452.278934	277.080155	724.463155	-445.888578	93.273866	603.220058	-407.293902	129.733407	621.263051	-320.755889	17.852666	577.418071	-351.045087	316.735360	499.545089	-362.400544	225.035604	514.895708	-314.438723	192.563805	502.665880	-427.690842	-215.045443	944.664251	-233.448218	-9.314647	80.650987	-433.466158	-9.278633	80.671698	-33.114872	
1753	8.7650	449.719702	1450.509837	-47.972445	446.258452	1466.107782	-377.247989	349.214307	1542.778111	-207.075402	420.858884	1388.180589	-209.648389	517.227820	1179.624464	43.039583	730.669855	989.600686	-36.571616	526.427524	1202.761605	-458.418626	732.516236	976.979212	-439.566402	-118.736866	1193.112444	-226.247670	60.143610	1237.149848	-410.445050	51.645651	1222.783845	-39.844114	76.084667	1157.102333	-371.141870	83.358589	1142.308312	-83.686549	-97.221562	1244.008563	-179.036287	-92.158404	1247.463884	-262.422780	-8.866313	1105.211594	-37.874338	6.063693	1145.254891	-429.704895	48.721526	956.116247	-21.436127	107.029609	888.893556	-20.801351	127.346454	806.253566	-34.884287	139.962641	905.782744	-26.610805	172.615702	689.905604	-70.018146	189.589762	677.078046	-181.681303	152.949449	522.665523	-39.471736	174.194830	436.066560	-49.289552	147.895063	351.486267	-51.638838	203.324869	437.134920	-74.739956	137.045453	217.487305	-72.602215	162.248077	233.635168	-154.973162	85.634409	161.190465	-109.473629	393.134560	199.046945	-112.599075	279.004322	162.919026	-40.557035	300.474924	187.048249	-154.498221	111.804312	1068.735131	-478.668732	195.354864	1057.551248	-499.550070	212.327244	1088.910799	-488.408244	264.112574	1001.810738	-515.264078	390.993966	941.490052	-522.636144	414.751890	935.831006	-392.569952	285.718681	806.064314	-510.101852	251.369916	736.454676	-472.666699	177.820773	687.928633	-452.305335	277.077281	724.478349	-445.889117	93.294990	603.239169	-407.301233	129.740565	621.280110	-320.760061	17.872891	577.413835	-351.032031	316.754758	499.552333	-362.407219	225.052604	514.903907	-314.435948	192.565008	502.679396	-427.695290	-215.049592	944.677941	-233.462192	-9.312721	80.651093	-433.465356	-9.283813	80.688308	-33.113810	
